<svg width="1024" height="1024" viewBox="0 0 1024 1024" fill="none" xmlns="http://www.w3.org/2000/svg">
  <defs>
    <linearGradient id="bgGrad" x1="120" y1="100" x2="900" y2="920" gradientUnits="userSpaceOnUse">
      <stop offset="0" stop-color="#163B78"/>
      <stop offset="1" stop-color="#08162D"/>
    </linearGradient>
    <radialGradient id="glow" cx="0" cy="0" r="1" gradientUnits="userSpaceOnUse" gradientTransform="translate(496 390) rotate(90) scale(430)">
      <stop offset="0" stop-color="#35D6FF" stop-opacity="0.36"/>
      <stop offset="1" stop-color="#35D6FF" stop-opacity="0"/>
    </radialGradient>
    <linearGradient id="ringA" x1="260" y1="240" x2="760" y2="740" gradientUnits="userSpaceOnUse">
      <stop offset="0" stop-color="#8FF5FF"/>
      <stop offset="1" stop-color="#1CA7FF"/>
    </linearGradient>
    <linearGradient id="ringB" x1="280" y1="780" x2="790" y2="250" gradientUnits="userSpaceOnUse">
      <stop offset="0" stop-color="#28B9FF"/>
      <stop offset="1" stop-color="#A8FDFF"/>
    </linearGradient>
    <filter id="softBlur" x="184" y="184" width="656" height="656" filterUnits="userSpaceOnUse" color-interpolation-filters="sRGB">
      <feGaussianBlur stdDeviation="6"/>
    </filter>
  </defs>

  <rect x="72" y="72" width="880" height="880" rx="220" fill="url(#bgGrad)"/>
  <rect x="72" y="72" width="880" height="880" rx="220" stroke="#79BEFF" stroke-opacity="0.35" stroke-width="6"/>
  <circle cx="512" cy="512" r="430" fill="url(#glow)"/>

  <g filter="url(#softBlur)">
    <circle cx="512" cy="512" r="286" stroke="url(#ringA)" stroke-width="82"/>
  </g>
  <circle cx="512" cy="512" r="286" stroke="url(#ringA)" stroke-width="76"/>

  <path d="M668 262C724 304 760 366 768 436C775 507 752 577 704 635" stroke="url(#ringB)" stroke-width="70" stroke-linecap="round"/>
  <path d="M324 760C268 718 232 656 224 586C217 515 240 445 288 387" stroke="#2EBBFF" stroke-opacity="0.95" stroke-width="62" stroke-linecap="round"/>

  <circle cx="512" cy="512" r="122" fill="#98FBFF"/>
  <circle cx="512" cy="512" r="96" fill="#1E9CF3"/>
  <circle cx="512" cy="512" r="66" fill="#0A2450"/>

  <path d="M252 658L398 790L766 432L624 300L252 658Z" fill="#B7F9FF" fill-opacity="0.34"/>
  <circle cx="738" cy="364" r="18" fill="#C6FBFF"/>
  <circle cx="286" cy="586" r="16" fill="#A9F4FF"/>
  <circle cx="484" cy="784" r="15" fill="#CEFDFF"/>
</svg>
